<svg xmlns="http://www.w3.org/2000/svg" width="150" height="50" viewBox="0,0,150,50"><path fill="#111" d="M64.45 15.87L64.50 15.92L64.53 15.95Q66.30 20.69 66.87 25.87L66.99 25.98L66.96 25.96Q70.55 21.70 76.45 16.86L76.61 17.03L76.56 16.97Q79.69 16.60 82.31 15.80L82.24 15.73L75.79 21.46L75.85 21.52Q72.29 24.32 69.44 27.18L69.60 27.34L69.41 27.15Q77.48 36.40 82.55 41.12L82.50 41.08L82.48 41.06Q79.50 40.25 77.18 40.10L77.13 40.05L77.18 40.10Q71.25 34.54 66.95 28.72L67.03 28.81L67.06 28.83Q67.19 35.47 65.32 40.80L65.32 40.80L65.26 40.73Q64.98 40.72 64.48 40.91L64.49 40.92L64.44 41.06L64.44 41.06Q64.33 41.18 61.78 42.09L61.81 42.12L61.73 42.04Q64.73 35.53 64.39 28.07L64.37 28.04L64.43 28.11Q64.13 20.80 60.59 14.29L60.44 14.14L61.06 14.49L61.51 14.84L61.44 14.72L61.49 14.77Q62.25 15.19 64.46 15.87ZM64.68 15.53L64.66 15.51L64.69 15.54Q62.52 15.08 59.89 13.56L59.89 13.56L59.82 13.49Q64.13 20.80 64.13 29.75L64.01 29.63L64.08 29.70Q64.12 36.74 61.15 42.79L61.10 42.75L63.19 41.94L63.20 41.95Q62.85 43.01 62.16 44.30L62.15 44.30L62.15 44.29Q64.42 43.51 66.36 43.09L66.20 42.93L66.25 42.75L66.40 42.90Q66.54 42.74 67.11 42.59L67.14 42.62L67.23 42.71Q68.80 36.71 68.92 31.91L68.85 31.84L68.90 31.89Q71.07 34.48 72.89 36.34L72.91 36.36L72.92 36.37Q74.10 37.47 77.11 40.44L76.95 40.28L77.06 40.39L77.11 40.45Q78.07 41.21 79.94 42.81L79.95 42.83L79.84 42.72Q83.82 43.53 87.28 45.25L87.28 45.25L87.28 45.25Q77.95 36.64 71.71 29.22L71.73 29.24L71.67 29.18Q76.25 25.08 85.01 16.48L84.91 16.38L84.98 16.45Q82.44 17.60 80.42 17.98L80.26 17.82L80.35 17.91Q81.57 16.93 83.89 14.91L83.93 14.94L83.84 14.85Q79.72 16.25 76.37 16.44L76.43 16.50L76.36 16.44Q73.46 18.67 68.59 23.36L68.64 23.40L68.66 23.43Q68.22 20.79 67.65 18.23L67.68 18.26L67.64 18.22Q66.52 18.13 65.53 17.79L65.46 17.71L65.42 17.67Q65.36 17.08 64.78 15.63Z"/><path fill="#222" d="M23.32 40.06L23.36 40.10L21.20 40.22L21.22 40.25Q20.77 40.26 19.80 40.31L19.81 40.32L19.86 40.37Q18.85 40.38 18.35 40.38L18.39 40.42L18.38 40.41Q16.67 40.34 15.64 39.50L15.80 39.66L15.71 39.57Q16.50 38.45 18.14 36.32L18.21 36.40L18.23 36.42Q19.40 37.89 21.61 37.66L21.58 37.64L21.68 37.74Q22.63 37.66 23.28 37.01L23.24 36.97L23.24 36.98Q23.82 36.26 23.71 35.38L23.79 35.47L23.63 35.31Q23.63 30.81 23.70 26.24L23.59 26.14L23.61 26.15Q23.71 21.61 24.25 17.00L24.17 16.93L24.22 16.98Q26.27 16.89 28.40 15.86L28.30 15.76L28.27 15.73Q26.47 22.54 26.47 29.78L26.50 29.81L26.40 29.70Q26.52 33.36 26.98 36.86L26.94 36.83L26.88 36.77Q26.89 37.05 26.89 37.39L26.99 37.49L26.94 37.44Q27.02 38.09 26.79 38.62L26.67 38.50L26.80 38.63Q26.22 39.88 23.40 40.14ZM28.34 42.99L28.39 43.04L28.64 42.94L29.01 42.89L29.16 42.67L29.11 42.62Q29.48 42.41 29.55 42.30L29.67 42.42L29.66 42.41Q29.78 41.15 29.51 40.16L29.56 40.21L29.44 40.09Q28.17 34.37 28.44 28.01L28.36 27.94L28.44 28.01Q28.57 21.78 30.36 15.88L30.39 15.92L30.50 16.02Q29.52 16.57 28.27 17.30L28.23 17.25L28.34 17.37Q28.51 16.59 28.93 15.07L28.88 15.02L28.92 15.06Q26.34 16.32 23.68 16.62L23.82 16.77L23.80 16.75Q23.41 21.11 23.33 26.06L23.33 26.06L23.38 26.11Q23.34 32.05 23.42 35.47L23.42 35.48L23.29 35.35Q23.30 37.07 21.55 37.22L21.55 37.23L21.72 37.39Q19.81 37.31 18.14 35.68L18.18 35.72L18.19 35.73Q16.08 38.19 15.13 39.75L15.22 39.84L15.19 39.81Q15.79 40.41 16.82 40.64L16.98 40.80L16.90 40.72Q16.81 40.86 16.54 41.09L16.60 41.14L16.53 41.08Q17.93 41.98 19.91 42.25L20.08 42.42L19.92 42.26Q20.35 42.35 23.64 42.65L23.62 42.62L23.72 42.73Q26.94 42.95 28.31 42.95Z"/><path fill="#222" d="M119.32 39.88L119.43 40.00L119.43 40.00Q115.12 39.30 113.29 37.85L113.35 37.92L113.27 37.84Q111.43 36.38 111.01 33.37L111.19 33.54L111.00 33.35Q110.98 32.99 110.63 28.23L110.63 28.23L110.80 28.40Q110.74 27.12 110.66 25.86L110.75 25.95L110.80 26.00Q110.59 20.92 112.80 19.17L112.76 19.13L112.82 19.19Q115.43 17.04 123.19 16.35L123.13 16.29L123.19 16.35Q124.49 16.17 126.13 16.20L126.21 16.29L126.17 16.25Q126.17 16.25 129.14 16.25L129.09 16.19L129.16 16.26Q129.89 16.16 131.60 16.31L131.74 16.45L131.59 16.29Q131.21 17.37 130.19 20.45L130.08 20.34L130.18 20.45Q127.99 19.13 124.99 19.13L124.99 19.14L125.01 19.16Q124.30 19.21 123.50 19.29L123.47 19.26L123.52 19.30Q118.41 19.75 115.90 21.73L115.79 21.62L115.77 21.60Q113.83 23.28 113.67 26.63L113.59 26.55L113.77 26.73Q113.61 27.21 113.65 28.47L113.74 28.56L113.65 28.47Q113.84 33.38 116.24 35.47L116.14 35.38L116.10 35.34Q118.29 37.30 123.28 37.60L123.29 37.62L123.45 37.77Q126.38 37.73 129.38 35.94L129.54 36.10L129.41 35.97Q130.09 38.78 130.70 40.15L130.79 40.24L130.72 40.18Q128.52 40.33 126.88 40.29L126.97 40.39L126.91 40.32Q122.41 40.24 119.29 39.86ZM134.51 43.69L134.43 43.61L134.39 43.58Q132.66 40.63 131.98 38.04L132.06 38.12L131.99 38.05Q131.51 38.26 130.52 38.64L130.54 38.66L130.52 38.64Q130.19 37.85 130.00 37.01L130.14 37.15L129.64 35.32L129.74 35.42Q126.40 37.41 123.28 37.30L123.21 37.23L123.36 37.38Q118.98 37.07 116.66 35.32L116.73 35.39L116.71 35.37Q115.63 33.61 115.71 30.68L115.56 30.53L115.55 30.52Q115.82 26.15 118.30 24.02L118.25 23.97L118.21 23.93Q120.48 22.17 125.16 21.56L124.99 21.38L125.02 21.41Q125.90 21.38 126.63 21.38L126.56 21.32L126.60 21.35Q129.46 21.44 131.55 22.96L131.42 22.83L131.52 22.93Q131.90 20.68 133.12 17.44L133.20 17.53L133.14 17.47Q132.99 17.58 132.44 17.52L132.29 17.38L132.28 17.37Q131.74 17.32 131.47 17.32L131.54 17.39L131.51 17.36Q131.78 16.90 132.24 15.91L132.25 15.92L132.11 15.79Q132.00 15.90 129.50 15.83L129.37 15.69L129.56 15.89Q126.90 15.64 126.25 15.68L126.33 15.76L126.34 15.77Q115.82 16.10 112.36 18.69L112.39 18.72L112.34 18.67Q110.29 20.47 110.29 24.39L110.35 24.45L110.30 24.40Q110.38 25.58 110.50 28.29L110.44 28.23L110.43 28.22Q110.53 31.75 110.76 33.46L110.79 33.49L110.76 33.46Q111.16 36.60 112.76 38.12L112.77 38.13L112.72 38.08Q113.22 38.77 114.47 39.91L114.53 39.98L114.61 40.05Q117.89 41.85 123.14 42.61L123.07 42.54L122.97 42.43Q129.51 43.49 134.49 43.68Z"/><path fill="#222" d="M50.30 27.22L50.34 27.26L50.22 27.14Q51.08 27.20 52.48 27.05L52.41 26.97L52.48 27.05Q52.44 27.69 52.44 28.34L52.41 28.31L52.44 29.59L52.47 29.62Q51.60 29.59 50.77 29.67L50.83 29.73L50.81 29.71Q49.93 29.71 49.09 29.67L49.06 29.63L49.01 29.59Q46.12 35.72 42.69 40.32L42.87 40.50L42.77 40.41Q40.21 41.00 38.91 41.61L39.01 41.70L39.05 41.74Q43.13 36.00 46.18 29.72L46.09 29.64L43.58 29.75L43.45 29.62Q43.46 28.30 43.34 26.97L43.36 26.98L43.34 26.96Q45.23 27.10 47.28 27.10L47.28 27.09L49.17 23.39L49.30 23.52Q50.33 21.66 51.55 20.06L51.39 19.90L51.42 19.93Q49.93 20.16 48.34 20.16L48.25 20.07L48.21 20.03Q42.31 20.22 38.54 18.01L38.50 17.98L37.83 16.24L37.71 16.11Q37.52 15.44 37.14 14.56L36.99 14.41L37.12 14.53Q41.41 17.12 47.12 17.34L47.03 17.25L47.20 17.42Q52.32 17.63 57.46 15.65L57.42 15.62L57.37 15.56Q57.14 15.94 56.65 16.82L56.68 16.85L56.68 16.85Q53.08 21.62 50.22 27.14ZM58.34 18.28L58.27 18.22L59.36 16.29L59.31 16.25Q58.44 16.82 56.77 17.55L56.74 17.52L56.83 17.12L56.94 17.23Q56.98 17.00 57.09 16.88L57.16 16.95L57.20 16.99Q57.41 16.13 58.13 14.80L58.16 14.83L58.22 14.89Q52.92 17.20 47.17 16.97L47.11 16.91L47.17 16.97Q41.16 16.71 36.40 13.74L36.28 13.62L36.37 13.71Q37.46 15.64 38.30 18.31L38.12 18.13L38.18 18.19Q39.38 18.93 40.18 19.24L40.11 19.17L40.06 19.11Q40.36 19.61 40.82 21.47L40.81 21.46L40.75 21.40Q43.98 22.73 49.50 22.58L49.46 22.54L49.43 22.51Q49.03 22.99 47.05 26.76L47.17 26.87L47.16 26.86Q45.11 26.87 43.13 26.68L43.00 26.55L43.12 26.67Q43.15 27.46 43.15 28.33L43.12 28.30L43.08 29.98L44.82 30.05L44.80 31.43L44.76 31.39Q40.98 38.91 38.20 42.49L38.12 42.42L38.09 42.38Q39.75 41.68 41.38 41.19L41.37 41.17L41.45 41.26Q40.78 42.18 39.41 43.89L39.41 43.90L39.32 43.80Q42.49 42.71 44.92 42.48L44.94 42.50L44.91 42.47Q47.75 38.61 50.88 31.83L50.91 31.87L54.32 32.04L54.32 32.04Q54.34 31.22 54.34 30.31L54.36 30.33L54.24 28.43L54.23 28.41Q53.96 28.41 53.41 28.45L53.43 28.47L53.56 28.60Q52.90 28.53 52.63 28.53L52.76 28.66L52.65 28.54Q52.59 28.38 52.63 28.22L52.73 28.32L52.63 27.95L52.68 28.00Q55.29 22.96 58.37 18.32Z"/><path fill="#111" d="M99.98 29.47L99.99 29.48L100.00 29.49Q98.91 28.83 98.27 28.86L98.17 28.77L98.22 28.82Q96.70 28.75 95.66 29.76L95.84 29.94L95.85 29.95Q94.75 30.91 94.87 32.28L94.72 32.13L94.76 32.17Q95.16 36.61 94.29 41.14L94.16 41.02L94.21 41.06Q91.99 41.51 90.89 42.05L90.94 42.10L90.95 42.10Q92.46 37.94 92.23 33.48L92.20 33.46L92.28 33.54Q92.01 29.00 90.30 24.93L90.32 24.95L90.18 24.81Q91.47 25.65 93.76 26.30L93.75 26.29L94.27 28.95L94.18 28.85Q94.90 26.00 99.17 26.00L99.29 26.12L99.23 26.06Q99.65 26.02 99.95 26.02L99.88 25.94L99.95 26.02Q101.16 25.93 102.42 26.62L102.41 26.61L102.48 26.68Q101.20 28.07 100.06 29.55ZM101.58 31.45L101.65 31.37L101.81 31.53Q102.53 30.19 104.20 27.76L104.30 27.85L104.19 27.74Q103.73 27.40 102.21 27.14L102.22 27.15L102.29 27.22Q102.69 26.97 103.14 26.36L102.99 26.20L103.09 26.30Q101.23 25.43 99.29 25.62L99.33 25.67L99.33 25.66Q97.26 25.72 96.53 25.99L96.55 26.01L96.59 26.04Q95.09 26.37 94.29 27.47L94.45 27.63L94.20 26.74L93.97 25.86L94.07 25.97Q91.65 25.52 89.67 24.19L89.55 24.07L89.58 24.10Q91.79 28.55 92.02 33.43L91.87 33.28L92.02 33.43Q92.14 38.23 90.38 42.76L90.50 42.87L90.53 42.91Q91.57 42.38 92.44 42.07L92.39 42.02L92.39 42.02Q92.11 43.11 91.62 44.18L91.72 44.28L91.65 44.21Q94.50 43.37 96.63 43.25L96.54 43.17L96.77 38.68L96.75 38.65Q96.98 36.53 96.98 34.28L96.96 34.26L96.83 34.13Q96.95 33.07 97.87 32.10L97.89 32.13L97.85 32.08Q98.72 31.07 99.86 30.99L99.83 30.96L99.90 31.03Q100.45 30.82 101.18 31.51L101.24 31.57L101.63 31.50ZM96.66 29.73L96.72 29.72L96.66 29.77L96.58 29.65Z"/></svg>